<svg xmlns="http://www.w3.org/2000/svg" width="53.963" height="53.962" viewBox="0 0 53.963 53.962">
  <path id="Icon_awesome-pen-nib" data-name="Icon awesome-pen-nib" d="M14.4,14.628a6.746,6.746,0,0,0-4.565,4.358L0,48.482,1.548,50.03,17.369,34.209a5.107,5.107,0,1,1,2.384,2.384L3.932,52.414l1.548,1.548,29.5-9.832a6.746,6.746,0,0,0,4.358-4.565l4.51-15.957L30.354,10.118ZM52.48,7.817,46.145,1.482a5.062,5.062,0,0,0-7.157,0l-5.96,5.96L46.52,20.935l5.96-5.96a5.062,5.062,0,0,0,0-7.157Z" fill="#00a4ef"/>
</svg>
